<svg width="100" height="95" viewBox="0 0 100 95" fill="none" xmlns="http://www.w3.org/2000/svg">
<ellipse cx="17.3422" cy="48.309" rx="12.6119" ry="12.8163" transform="rotate(-30.1417 17.3422 48.309)" fill="white"/>
<ellipse cx="82.6586" cy="47.1058" rx="12.6119" ry="12.8163" transform="rotate(-30.1417 82.6586 47.1058)" fill="white"/>
<ellipse cx="50.2172" cy="48.2992" rx="12.6119" ry="12.8163" transform="rotate(-30.1417 50.2172 48.2992)" fill="white"/>
<ellipse cx="33.0805" cy="18.7699" rx="12.6119" ry="12.8163" transform="rotate(-30.1417 33.0805 18.7699)" fill="white"/>
<ellipse cx="67.1391" cy="77.4418" rx="12.6119" ry="12.8163" transform="rotate(-30.1417 67.1391 77.4418)" fill="white"/>
<path fill-rule="evenodd" clip-rule="evenodd" d="M25.1445 27.0957L44.1894 16.0373L45.7014 18.6412C45.708 22.296 46.6517 26.0105 48.6276 29.4135C50.6036 32.8166 53.3618 35.4774 56.5327 37.2949L58.953 41.4631L39.9081 52.5216L37.4815 48.3425C37.4768 44.6841 36.5332 40.9656 34.5553 37.5592C32.5773 34.1528 29.8156 31.49 26.6407 29.6724L25.1445 27.0957Z" fill="white"/>
<path fill-rule="evenodd" clip-rule="evenodd" d="M42.1289 56.2852L61.1738 45.2267L75.9374 70.6526L56.8925 81.711L54.4637 77.5281C54.4588 73.8701 53.5152 70.152 51.5374 66.746C49.5597 63.3399 46.7983 60.6773 43.6238 58.8597L42.1289 56.2852ZM65.5926 58.5974C67.5708 62.0043 70.3331 64.6674 73.5087 66.4851L62.6663 47.8123C62.6707 51.4712 63.6143 55.1904 65.5926 58.5974Z" fill="white"/>
<ellipse cx="50.1045" cy="47.1115" rx="12.6119" ry="12.8163" transform="rotate(-152.674 50.1045 47.1115)" fill="white"/>
<ellipse cx="34.4287" cy="77.4494" rx="12.6119" ry="12.8163" transform="rotate(-152.674 34.4287 77.4494)" fill="white"/>
<ellipse cx="65.5733" cy="17.1759" rx="12.6119" ry="12.8163" transform="rotate(-152.674 65.5733 17.1759)" fill="white"/>
<path fill-rule="evenodd" clip-rule="evenodd" d="M45.7188 79.6641L26.1536 69.5546L27.5341 66.8829C30.612 64.9118 33.2363 62.1186 35.0427 58.6225C36.8492 55.1264 37.6092 51.3699 37.4362 47.7191L39.6503 43.4341L59.2155 53.5436L56.9953 57.8404C53.9184 59.8114 51.2951 62.604 49.4891 66.0992C47.6832 69.5943 46.9231 73.3497 47.0955 76.9996L45.7188 79.6641Z" fill="white"/>
<path fill-rule="evenodd" clip-rule="evenodd" d="M61.1875 49.627L41.6224 39.5175L42.996 36.8589C46.0771 34.8876 48.7042 32.0927 50.5121 28.5938C52.32 25.0949 53.0798 21.3352 52.9052 17.6816L55.1191 13.397L74.6842 23.5065L72.4633 27.8047C69.3872 29.7756 66.7645 32.5678 64.9589 36.0623C63.1533 39.5568 62.3931 43.3114 62.5652 46.9607L61.1875 49.627Z" fill="white"/>
</svg>
